<svg width="58" height="58" viewBox="0 0 58 58" fill="none" xmlns="http://www.w3.org/2000/svg">
<g filter="url(#filter0_d)">
<rect x="5" width="48" height="48" rx="10" fill="url(#paint0_linear)"/>
</g>
<path d="M25.9374 19.6389C25.411 19.5477 25.0325 19.3221 24.8229 18.9461C24.6853 18.7053 24.618 18.3796 24.618 17.9699H25.2509C25.2701 18.2963 25.3229 18.5349 25.4046 18.6852C25.555 18.9548 25.8302 19.1061 26.2343 19.1396V17.189C25.7166 17.0914 25.3342 16.9282 25.0863 16.6993C24.839 16.4698 24.7158 16.1529 24.7158 15.7472C24.7158 15.3847 24.8487 15.0584 25.1141 14.7663C25.3814 14.4759 25.7535 14.3279 26.2327 14.323V13.848H26.5719V14.3161C27.0472 14.3497 27.4112 14.4889 27.6649 14.7354C27.9185 14.9818 28.0513 15.3066 28.0641 15.7115H27.4392C27.4233 15.5306 27.3737 15.3747 27.292 15.2434C27.1415 15.0026 26.9031 14.8761 26.5736 14.8642V16.6068C27.1264 16.7621 27.5025 16.9077 27.7 17.0429C28.0233 17.2669 28.1833 17.5989 28.1833 18.0374C28.1833 18.6719 27.9769 19.1223 27.5649 19.3895C27.396 19.4991 27.1504 19.5719 26.8696 19.6263C27.6929 19.6543 28.5122 19.7871 29.3026 20.0255C30.0515 19.2806 30.514 18.2502 30.514 17.1125C30.514 14.841 28.6722 13 26.4007 13C24.1301 13 22.2891 14.841 22.2891 17.1125C22.2891 18.2853 22.7828 19.3415 23.5708 20.0904C24.3372 19.839 25.1341 19.6885 25.9374 19.6389Z" fill="white"/>
<path d="M25.5981 16.2594C25.7556 16.3929 25.9685 16.4858 26.2358 16.5385V14.8568C25.9197 14.8695 25.6957 14.9641 25.5629 15.1424C25.4294 15.3217 25.3621 15.5089 25.3621 15.7049C25.3621 15.9409 25.442 16.1257 25.5981 16.2594Z" fill="white"/>
<path d="M27.5406 18.2124C27.5406 17.9139 27.4311 17.6876 27.2127 17.5323C27.0862 17.4419 26.8734 17.3562 26.575 17.2755V19.1573C26.983 19.1381 27.2638 18.9893 27.4206 18.7101C27.5007 18.5668 27.5406 18.4004 27.5406 18.2124Z" fill="white"/>
<path d="M40.5012 27.9117C41.0037 27.3893 41.0501 26.4171 40.9669 25.1186C40.3764 25.0787 39.5059 25.1771 39.1979 25.1186C38.4507 23.6313 37.3761 22.4704 35.8464 21.7663C35.8976 20.795 36.0296 19.9013 36.5921 19.4388C35.2256 19.3452 34.071 20.2686 33.3333 21.115C32.6724 20.4277 31.6924 19.8813 30.5411 19.4965L29.8243 20.7718C27.6928 20.0373 25.3518 20.0445 23.2324 20.7942L22.2969 19.5372C22.2945 19.5332 22.2905 19.53 22.2872 19.5268C20.8256 20.0108 19.4789 20.7694 18.4349 21.8606C17.7542 21.8087 17.8325 20.4285 18.7158 20.6502C17.278 19.6709 16.486 22.3551 17.8766 22.6983C16.7173 24.3537 16.6077 27.9109 18.1566 29.2158C18.383 31.1768 18.7302 33.0178 19.6831 34.2514H22.813C22.7297 33.6161 22.6474 32.9376 22.7194 32.196C24.6196 32.6272 26.8775 32.7537 29.1433 32.5689C29.4936 33.1498 29.8314 33.7403 30.2497 34.2522H33.3469C33.2333 33.4322 33.1109 32.5721 33.3333 31.7311C34.0726 31.5873 37.9105 30.612 40.5012 27.9117ZM36.2256 23.7568C36.6504 23.7568 36.9961 24.1017 36.9961 24.5265C36.9961 24.9513 36.6504 25.2962 36.2256 25.2962C35.8016 25.2962 35.4568 24.9513 35.4568 24.5265C35.4568 24.1017 35.8015 23.7568 36.2256 23.7568Z" fill="white"/>
<rect x="34" y="14" width="9" height="1" rx="0.5" fill="white"/>
<rect x="38" y="19" width="9" height="1" rx="0.5" transform="rotate(-90 38 19)" fill="white"/>
<defs>
<filter id="filter0_d" x="0" y="0" width="58" height="58" filterUnits="userSpaceOnUse" color-interpolation-filters="sRGB">
<feFlood flood-opacity="0" result="BackgroundImageFix"/>
<feColorMatrix in="SourceAlpha" type="matrix" values="0 0 0 0 0 0 0 0 0 0 0 0 0 0 0 0 0 0 127 0"/>
<feOffset dy="5"/>
<feGaussianBlur stdDeviation="2.5"/>
<feColorMatrix type="matrix" values="0 0 0 0 0 0 0 0 0 0.0995672 0 0 0 0 0.25 0 0 0 0.25 0"/>
<feBlend mode="normal" in2="BackgroundImageFix" result="effect1_dropShadow"/>
<feBlend mode="normal" in="SourceGraphic" in2="effect1_dropShadow" result="shape"/>
</filter>
<linearGradient id="paint0_linear" x1="29" y1="0" x2="29" y2="48" gradientUnits="userSpaceOnUse">
<stop stop-color="#5B9DFE"/>
<stop offset="1" stop-color="#1170FE"/>
</linearGradient>
</defs>
</svg>
