<svg width="193" height="36" viewBox="0 0 193 36" fill="none" xmlns="http://www.w3.org/2000/svg">
<path fill-rule="evenodd" clip-rule="evenodd" d="M70.5764 31.7075H73.158L63.3384 14.5728H59.6402L49.7969 31.7075H52.426L54.481 28.0869H68.5214L70.5764 31.7075ZM67.4286 26.0832H55.6015L61.0736 16.5765H62.0159L67.4365 26.0832H67.4286ZM73.938 36H75.8386V30.2975H75.9415C76.8562 31.5279 78.0005 31.8599 81.4848 31.8599C84.795 31.8599 86.355 31.6529 87.3449 31.0787C88.9089 30.1765 89.586 28.5595 89.586 25.759C89.586 22.9585 89.0119 21.4431 87.5548 20.5448C86.4619 19.8495 85.0801 19.6464 81.6947 19.6464C77.8936 19.6464 76.7968 19.9511 75.9376 21.3415H75.8346V19.7792H73.934V35.9649L73.938 36ZM82.1421 21.3025C86.6995 21.3025 87.5587 22.0251 87.5587 25.802C87.5587 27.8291 87.2182 28.8836 86.3709 29.5008C85.6186 30.0398 84.3911 30.2194 81.4492 30.2194C76.6582 30.2194 75.799 29.5242 75.799 25.6457C75.799 23.6694 76.1355 22.6422 76.9868 21.9977C77.7193 21.4861 78.9943 21.3025 82.1342 21.3025H82.1421ZM91.4153 36H93.3158V30.2975H93.4188C94.3295 31.5279 95.4777 31.8599 98.9621 31.8599C102.268 31.8599 103.832 31.6529 104.822 31.0787C106.386 30.1765 107.063 28.5595 107.063 25.759C107.063 22.9585 106.489 21.4431 105.032 20.5448C103.935 19.8495 102.557 19.6464 99.172 19.6464C95.3669 19.6464 94.274 19.9511 93.4148 21.3415H93.3119V19.7792H91.4113V35.9649L91.4153 36ZM99.6313 21.3025C104.193 21.3025 105.052 22.0251 105.052 25.802C105.052 27.8291 104.711 28.8836 103.864 29.5008C103.108 30.0398 101.884 30.2194 98.9423 30.2194C94.1513 30.2194 93.2881 29.5242 93.2881 25.6457C93.2881 23.6694 93.6287 22.6422 94.476 21.9977C95.2045 21.4861 96.4835 21.3025 99.6233 21.3025H99.6313Z" fill="white"/>
<path fill-rule="evenodd" clip-rule="evenodd" d="M117.053 31.598L107.253 14.4516L107.067 14.1274H110.128L110.191 14.2407L118.72 29.1569H119.294L127.609 14.2407L127.673 14.1274H130.761L130.579 14.4516L121.013 31.5941L120.949 31.7074H117.121L117.057 31.598H117.053ZM142.295 28.5632C142.363 28.3077 142.404 28.0459 142.418 27.7821L142.438 27.5829H144.873V27.8094C144.833 29.317 144.358 30.3326 143.238 30.977C142.117 31.6215 140.466 31.8519 137.987 31.8519C136.399 31.8848 134.811 31.8012 133.236 31.6019C132.343 31.5178 131.488 31.2069 130.753 30.6997C130.108 30.1841 129.634 29.4906 129.391 28.7077C129.072 27.6969 128.922 26.6415 128.948 25.5831C128.901 24.3708 129.093 23.161 129.514 22.021C129.854 21.1467 130.498 20.42 131.331 19.9705C131.949 19.6557 132.62 19.457 133.311 19.3846C134.439 19.2589 135.574 19.2054 136.708 19.2245C138.807 19.2245 140.224 19.3104 141.262 19.5525C142.164 19.7263 142.983 20.1873 143.594 20.8649C144.079 21.4085 144.417 22.0641 144.576 22.7709C144.788 23.8214 144.887 24.891 144.873 25.962V26.169H131.454C131.469 26.7112 131.547 27.2498 131.688 27.7743C131.786 28.1775 131.986 28.5497 132.27 28.8562C132.717 29.2587 133.286 29.5057 133.889 29.5592C135.172 29.7288 136.467 29.7967 137.761 29.7623C138.752 29.7931 139.744 29.7317 140.723 29.5787C141.218 29.519 141.677 29.2927 142.022 28.9382C142.14 28.8323 142.227 28.6976 142.275 28.5476L142.295 28.5632ZM132.61 21.9234C131.933 22.3335 131.644 23.0287 131.529 24.138H142.335C142.291 23.0443 142.006 22.3491 141.258 21.9351C140.414 21.4703 138.981 21.3141 136.677 21.3141C134.633 21.3141 133.37 21.4625 132.61 21.9234ZM145.827 27.9813V27.1454H148.29V27.3485L148.314 27.6844C148.314 28.6648 148.385 29.1882 149.038 29.4459C149.779 29.7389 151.22 29.774 153.9 29.774C155.046 29.7968 156.192 29.7616 157.333 29.6686C157.786 29.6627 158.228 29.527 158.604 29.278C158.751 29.1645 158.864 29.015 158.933 28.8444C159.01 28.6261 159.046 28.3959 159.04 28.1648C159.04 27.5399 158.874 27.1337 158.458 26.8876C158.042 26.6416 157.23 26.5205 156.062 26.5322H154.835L150.539 26.4853C148.9 26.4619 147.767 26.2236 147.066 25.6729C146.366 25.1222 146.021 24.2473 146.021 22.9779C146.005 22.3827 146.12 21.7912 146.358 21.2438C146.582 20.7568 146.942 20.3425 147.395 20.0486C148.07 19.6932 148.813 19.4829 149.577 19.4315C150.949 19.286 152.33 19.2234 153.71 19.244C155.229 19.1963 156.749 19.3063 158.244 19.5721C159.119 19.7041 159.914 20.1489 160.477 20.8219C160.709 21.0869 160.874 21.403 160.956 21.7437C161.054 22.2586 161.092 22.7826 161.071 23.306V23.5286H158.628V23.306C158.641 23.0063 158.618 22.7062 158.561 22.4116C158.532 22.2603 158.452 22.123 158.335 22.021C158.109 21.7867 157.662 21.6304 156.929 21.5093C155.85 21.3765 154.762 21.3204 153.675 21.3414C152.617 21.3292 151.559 21.3762 150.507 21.482C149.985 21.499 149.473 21.6326 149.01 21.8726C148.848 22.011 148.721 22.1865 148.643 22.3838C148.564 22.5812 148.535 22.7945 148.559 23.0053C148.559 23.5638 148.702 23.9075 149.137 24.0989C149.64 24.3176 150.511 24.3801 151.909 24.3528C152.281 24.3528 153.208 24.3528 154.229 24.3528C155.449 24.3723 156.795 24.4075 157.472 24.4387C158.909 24.4895 159.923 24.7902 160.588 25.3878C161.253 25.9854 161.566 26.8915 161.566 28.1219C161.591 28.7677 161.465 29.4105 161.198 30.0006C160.939 30.5064 160.523 30.9171 160.01 31.1723C159.337 31.4768 158.611 31.6543 157.872 31.6957C156.89 31.7972 155.587 31.8441 153.861 31.8441C152.338 31.8742 150.814 31.8103 149.3 31.6527C148.503 31.6049 147.732 31.3546 147.062 30.9262C146.633 30.6399 146.303 30.2311 146.116 29.7545C145.916 29.173 145.826 28.5599 145.851 27.9461L145.827 27.9813ZM164.789 19.3885V16.4045H167.137V19.3612H175.575V21.4156H167.129V26.3369V26.3604C167.181 28.5125 167.185 28.5945 167.525 29.0202C167.78 29.3082 168.123 29.5058 168.503 29.5826C169.17 29.7241 169.852 29.7845 170.534 29.7623C171.137 29.7901 171.74 29.7362 172.328 29.6022C172.656 29.5255 172.94 29.3249 173.12 29.0436C173.257 28.8324 173.345 28.5935 173.377 28.3445C173.437 27.8403 173.461 27.3326 173.449 26.8251V25.8604H175.793V26.8251C175.811 27.5388 175.764 28.2527 175.65 28.9577C175.567 29.4341 175.381 29.8871 175.104 30.2857C174.702 30.8768 174.1 31.3074 173.405 31.5004C172.415 31.7677 171.39 31.885 170.364 31.848C169.322 31.8793 168.281 31.7716 167.268 31.5277C166.574 31.368 165.958 30.9777 165.522 30.4224C165.232 30.0305 165.036 29.5792 164.947 29.1022C164.83 28.3936 164.781 27.6757 164.801 26.9579V21.4312H161.796V19.3768H164.765L164.789 19.3885ZM181.063 19.3885C182.132 19.2673 183.209 19.2151 184.286 19.2323C185.728 19.2034 187.171 19.266 188.606 19.4197C189.392 19.4864 190.153 19.7238 190.835 20.115C191.6 20.593 192.183 21.3071 192.494 22.146C192.868 23.238 193.037 24.3882 192.993 25.5401C193.04 26.7343 192.86 27.9266 192.462 29.0554C192.141 29.91 191.524 30.6251 190.72 31.0747C190.084 31.4172 189.386 31.6323 188.665 31.7074C187.495 31.8415 186.318 31.8976 185.141 31.8753C183.801 31.9022 182.461 31.8396 181.13 31.6879C180.349 31.611 179.593 31.3756 178.909 30.9965C178.107 30.5561 177.491 29.8486 177.171 29.0007C176.784 27.8697 176.612 26.678 176.664 25.4855C176.618 24.2871 176.816 23.0919 177.246 21.9702C177.6 21.0966 178.258 20.3764 179.103 19.9392C179.718 19.64 180.381 19.4496 181.063 19.3768V19.3885ZM187.457 21.4195C186.749 21.3492 185.818 21.3141 184.595 21.3141C182.239 21.3141 180.857 21.4781 180.089 22.0952C179.321 22.7123 179.142 23.7786 179.142 25.6104C179.142 26.8134 179.257 27.6649 179.538 28.2625C179.668 28.5373 179.856 28.7818 180.088 28.9797C180.321 29.1777 180.594 29.3246 180.888 29.4108C181.373 29.5666 181.876 29.6585 182.385 29.6842C183.035 29.7428 183.878 29.7662 184.994 29.7662C186.016 29.7918 187.038 29.7383 188.051 29.6061C188.583 29.5465 189.09 29.3528 189.524 29.0436C189.901 28.728 190.167 28.3028 190.284 27.8289C190.475 27.056 190.558 26.2609 190.53 25.4659C190.577 24.5996 190.454 23.7324 190.17 22.9115C190.062 22.6471 189.902 22.4069 189.697 22.2055C189.493 22.0041 189.25 21.8457 188.982 21.7398C188.496 21.5447 187.981 21.4299 187.457 21.4V21.4195Z" fill="white"/>
<path fill-rule="evenodd" clip-rule="evenodd" d="M25.5389 21.314L21.7536 19.1384L21.1913 19.4587L20.7716 19.7009L20.1658 20.0446L18.4632 21.021L17.6713 21.4819L17.5288 21.5639L3.81301 29.3755V25.6455L0.00792072 27.8132V35.8553L2.85481 34.2383L16.8794 26.2431L17.6713 25.79L18.4632 25.333L22.2485 23.177L24.9647 21.6147L25.523 21.2983L25.5389 21.314ZM33.1372 29.3677L26.0536 25.333L22.2643 27.4929L34.0954 34.2304L36.9422 35.8474V10.5144L35.992 9.97542L27.7087 5.25721L19.4293 0.542906L18.4632 0L17.5129 0.542906L9.22962 5.25721L0.950286 9.97542L0 10.5144V23.4817L3.80509 21.3179L11.1342 17.1426L18.4632 12.9673L20.9933 14.4085L25.5309 16.9941L29.3202 19.1501L33.1213 21.3179V29.3677H33.1372ZM9.24546 13.9047L3.81301 16.9941V12.6704L11.1421 8.49902L18.4632 4.32372L25.7923 8.49902L33.1213 12.6704V16.9941L27.6928 13.9047L19.4135 9.18644L18.4632 8.64354L17.5129 9.18644L9.24546 13.9047Z" fill="url(#paint0_linear)"/>
<defs>
<linearGradient id="paint0_linear" x1="-4.83764e-07" y1="16.4934" x2="36.9422" y2="16.4934" gradientUnits="userSpaceOnUse">
<stop stop-color="#FF1500"/>
<stop offset="1" stop-color="#FE7000"/>
</linearGradient>
</defs>
</svg>
