<svg width="50" height="68" viewBox="0 0 50 68" fill="none" xmlns="http://www.w3.org/2000/svg">
<path d="M15.1768 30.2584C2.41829 19.2763 -1.41663 9.08179 0.441836 3.85202C1.08345 2.05277 2.42935 0.962761 4.04444 0.940363C5.95084 0.9105 7.65443 1.61602 9.0114 2.97105C10.9215 4.87856 12.0646 8.04778 12.0646 11.4447H9.34327C9.34327 8.80929 8.4841 6.31572 7.10132 4.93455C6.26428 4.09839 5.24286 3.6915 4.08132 3.69897C3.50608 3.70644 3.17422 4.29622 3.00091 4.78896C1.75456 8.29041 4.439 17.4061 16.9394 28.1643L15.1768 30.2584Z" fill="#F4CC6A"/>
<path d="M34.8234 30.2591L33.0608 28.1612C45.5575 17.403 48.2419 8.28734 46.9993 4.7859C46.8223 4.29316 46.4941 3.70336 45.9188 3.69589C44.7536 3.68843 43.7396 4.09531 42.8988 4.93147C41.516 6.31264 40.6569 8.80994 40.6569 11.4416H37.9356C37.9356 8.0447 39.075 4.87922 40.9887 2.96799C42.3457 1.61295 44.0677 0.903702 45.9557 0.937298C47.5708 0.959695 48.9204 2.04969 49.5583 3.84894C51.4168 9.08244 47.5819 19.2769 34.8234 30.2591Z" fill="#F4CC6A"/>
<path d="M29.13 37.7511C29.13 40.3342 29.709 42.783 30.7451 44.9667H19.2551C20.295 42.783 20.8702 40.3342 20.8702 37.7511C20.8702 35.1679 20.2913 32.7191 19.2551 30.5354H30.7451C29.709 32.7191 29.13 35.1679 29.13 37.7511Z" fill="#E1AD3D"/>
<path d="M9.36548 4.89417V17.8099C9.36548 26.5523 16.3642 33.6374 25.0002 33.6374C33.6361 33.6374 40.6348 26.5523 40.6348 17.8099V4.89417H9.36548Z" fill="#F4CC6A"/>
<path d="M33.7097 51.3947C33.7097 46.5233 29.8084 42.5776 25 42.5776C20.1879 42.5776 16.2903 46.527 16.2903 51.3947H33.7097Z" fill="#E1AD3D"/>
<path d="M41.9141 63.5527H8.08569V67.9575H41.9141V63.5527Z" fill="#C68F30"/>
<path d="M38.3005 50.4952H11.6995V63.5529H38.3005V50.4952Z" fill="#F4CC6A"/>
<path d="M31.9876 61.1186H18.0123C18.0123 60.1556 17.2416 59.3754 16.2903 59.3754V54.6794C17.2416 54.6794 18.0123 53.8992 18.0123 52.9362H31.9876C31.9876 53.8992 32.7583 54.6794 33.7097 54.6794V57.0274V59.3754C32.7583 59.3716 31.9876 60.1556 31.9876 61.1186Z" fill="#C68F30"/>
</svg>
