<svg width="197" height="485" viewBox="0 0 197 485" fill="none" xmlns="http://www.w3.org/2000/svg">
<g opacity="0.3">
<path opacity="0.2" d="M186.99 44.0973H9.84999C7.76804 44.0973 5.77137 44.9244 4.29921 46.3965C2.82705 47.8687 2 49.8653 2 51.9473V200.397C2 202.479 2.82705 204.476 4.29921 205.948C5.77137 207.42 7.76804 208.247 9.84999 208.247H186.99C189.072 208.247 191.069 207.42 192.541 205.948C194.013 204.476 194.84 202.479 194.84 200.397V51.9473C194.84 49.8653 194.013 47.8687 192.541 46.3965C191.069 44.9244 189.072 44.0973 186.99 44.0973ZM128.87 68.3873H68.22C67.1847 68.3873 66.1917 67.9767 65.4587 67.2456C64.7258 66.5145 64.3126 65.5226 64.31 64.4873V63.2373C64.31 62.2003 64.7219 61.2058 65.4552 60.4725C66.1885 59.7393 67.183 59.3273 68.22 59.3273H128.87C129.907 59.3273 130.902 59.7393 131.635 60.4725C132.368 61.2058 132.78 62.2003 132.78 63.2373V64.4873C132.777 65.5226 132.364 66.5145 131.631 67.2456C130.898 67.9767 129.905 68.3873 128.87 68.3873Z" fill="#B6FFFF"/>
<path d="M186.6 210.247H10.24C7.53191 210.245 4.93489 209.17 3.01624 207.259C1.09758 205.348 0.013209 202.755 0 200.047V52.3373C0.0026475 49.6223 1.08235 47.0192 3.00215 45.0994C4.92195 43.1796 7.525 42.0999 10.24 42.0973H186.6C189.315 42.0999 191.918 43.1796 193.838 45.0994C195.758 47.0192 196.837 49.6223 196.84 52.3373V200.047C196.827 202.755 195.742 205.348 193.824 207.259C191.905 209.17 189.308 210.245 186.6 210.247ZM10.24 46.0973C8.58587 46.0999 7.00022 46.7582 5.83057 47.9279C4.66091 49.0975 4.00264 50.6831 4 52.3373V200.047C4.00264 201.701 4.66091 203.287 5.83057 204.457C7.00022 205.626 8.58587 206.285 10.24 206.287H186.6C188.254 206.285 189.84 205.626 191.009 204.457C192.179 203.287 192.837 201.701 192.84 200.047V52.3373C192.837 50.6831 192.179 49.0975 191.009 47.9279C189.84 46.7582 188.254 46.0999 186.6 46.0973H10.24Z" fill="#5B9DFE"/>
<path d="M93.51 199.607C109.145 199.607 121.82 186.932 121.82 171.297C121.82 155.662 109.145 142.987 93.51 142.987C77.8748 142.987 65.2 155.662 65.2 171.297C65.2 186.932 77.8748 199.607 93.51 199.607Z" fill="#F2B91C"/>
<path d="M98.566 192.506C110.283 189.713 117.517 177.949 114.723 166.233C111.93 154.516 100.167 147.282 88.4497 150.075C76.7328 152.869 69.499 164.632 72.2925 176.349C75.086 188.066 86.8491 195.3 98.566 192.506Z" fill="#E78F04"/>
<path d="M115.26 170.227L92.26 193.037C86.7595 192.743 81.5765 190.369 77.76 186.397L108.68 155.687C112.643 159.52 114.996 164.72 115.26 170.227ZM101.61 151.047C99.3452 150.146 96.9451 149.633 94.51 149.527L71.75 172.147C71.8419 174.58 72.3422 176.98 73.23 179.247L101.61 151.047Z" fill="#F2B91C"/>
<path d="M101.61 151.047C99.3452 150.146 96.9451 149.633 94.51 149.527L100.29 143.787C102.463 144.323 104.564 145.115 106.55 146.147L101.61 151.047ZM71.75 172.147L65.98 177.877C66.4924 180.057 67.2681 182.165 68.29 184.157L73.23 179.247C72.3422 176.98 71.8419 174.58 71.75 172.147ZM113.35 151.097L108.72 155.687C112.668 159.527 115.007 164.726 115.26 170.227L121 164.527C119.747 159.427 117.098 154.776 113.35 151.097ZM73.18 190.987C76.8297 194.763 81.4596 197.447 86.55 198.737L92.3 193.037C86.7995 192.743 81.6165 190.369 77.8 186.397L73.18 190.987Z" fill="#FFFF2F"/>
<path d="M177.71 208.827H121.08V223.367H177.71V208.827Z" fill="#F2B91C"/>
<path d="M166.36 208.827H153.94V223.367H166.36V208.827Z" fill="#FFFF2F"/>
<path d="M142.93 208.827H130.51V223.367H142.93V208.827Z" fill="#E78F04"/>
<path d="M187.93 223.367H131.3V237.907H187.93V223.367Z" fill="#F2B91C"/>
<path d="M176.57 223.367H164.15V237.907H176.57V223.367Z" fill="#FFFF2F"/>
<path d="M153.14 223.367H140.72V237.907H153.14V223.367Z" fill="#E78F04"/>
<path d="M125.64 223.367H69.01V237.907H125.64V223.367Z" fill="#F2B91C"/>
<path d="M114.29 223.367H101.87V237.907H114.29V223.367Z" fill="#FFFF2F"/>
<path d="M90.8499 223.367H78.4299V237.907H90.8499V223.367Z" fill="#E78F04"/>
<path d="M65.5399 223.367H8.90991V237.907H65.5399V223.367Z" fill="#F2B91C"/>
<path d="M54.19 223.367H41.77V237.907H54.19V223.367Z" fill="#FFFF2F"/>
<path d="M30.7601 223.367H18.3401V237.907H30.7601V223.367Z" fill="#E78F04"/>
<path d="M166.36 194.297H109.73V208.837H166.36V194.297Z" fill="#F2B91C"/>
<path d="M159.61 194.297H147.19V208.837H159.61V194.297Z" fill="#FFFF2F"/>
<path d="M136.18 194.297H123.76V208.837H136.18V194.297Z" fill="#E78F04"/>
<path d="M111.678 210.031L59.6975 187.559L53.9276 200.905L105.908 223.378L111.678 210.031Z" fill="#F2B91C"/>
<path d="M101.256 205.521L90.0122 200.66L84.2423 214.006L95.4865 218.867L101.256 205.521Z" fill="#FFFF2F"/>
<path d="M80.2242 196.423L68.98 191.562L63.2101 204.908L74.4543 209.769L80.2242 196.423Z" fill="#E78F04"/>
<path d="M156.781 169.46L114.01 132.345L104.48 143.327L147.252 180.442L156.781 169.46Z" fill="#F2B91C"/>
<path d="M148.214 162.017L138.962 153.989L129.432 164.97L138.685 172.999L148.214 162.017Z" fill="#FFFF2F"/>
<path d="M130.918 146.987L121.666 138.958L112.137 149.94L121.389 157.969L130.918 146.987Z" fill="#E78F04"/>
<path d="M177.71 179.757H121.08V194.297H177.71V179.757Z" fill="#F2B91C"/>
<path d="M166.36 179.757H153.94V194.297H166.36V179.757Z" fill="#FFFF2F"/>
<path d="M142.93 179.757H130.51V194.297H142.93V179.757Z" fill="#E78F04"/>
<path d="M72.9901 208.827H16.3601V223.367H72.9901V208.827Z" fill="#F2B91C"/>
<path d="M61.64 208.827H49.22V223.367H61.64V208.827Z" fill="#FFFF2F"/>
<path d="M38.2 208.827H25.78V223.367H38.2V208.827Z" fill="#E78F04"/>
<path opacity="0.2" d="M186.93 84.2973H9.91C5.54143 84.2973 2 87.8387 2 92.2073V240.547C2 244.916 5.54143 248.457 9.91 248.457H186.93C191.299 248.457 194.84 244.916 194.84 240.547V92.2073C194.84 87.8387 191.299 84.2973 186.93 84.2973Z" fill="#B6FFFF"/>
<path d="M186.6 250.447H10.24C7.52581 250.442 4.92429 249.361 3.00507 247.442C1.08584 245.523 0.00528569 242.921 0 240.207V92.5373C0.00264195 89.8214 1.08203 87.2173 3.00154 85.2959C4.92105 83.3745 7.52408 82.2926 10.24 82.2873H186.6C189.316 82.2926 191.919 83.3745 193.838 85.2959C195.758 87.2173 196.837 89.8214 196.84 92.5373V240.207C196.835 242.921 195.754 245.523 193.835 247.442C191.916 249.361 189.314 250.442 186.6 250.447ZM10.24 86.2873C8.58414 86.29 6.99698 86.9496 5.82704 88.1214C4.6571 89.2932 4 90.8814 4 92.5373V240.207C4.00264 241.861 4.66091 243.447 5.83057 244.617C7.00022 245.786 8.58587 246.445 10.24 246.447H186.6C188.254 246.445 189.84 245.786 191.009 244.617C192.179 243.447 192.837 241.861 192.84 240.207V92.5373C192.84 90.8814 192.183 89.2932 191.013 88.1214C189.843 86.9496 188.256 86.29 186.6 86.2873H10.24Z" fill="#5B9DFE"/>
<path d="M130.3 71.2573H66.2C64.9543 71.2547 63.7604 70.7586 62.8795 69.8778C61.9987 68.9969 61.5026 67.803 61.5 66.5573V61.5573C61.5026 60.3116 61.9987 59.1177 62.8795 58.2368C63.7604 57.356 64.9543 56.8599 66.2 56.8573H130.3C131.545 56.8599 132.738 57.3563 133.617 58.2374C134.496 59.1186 134.99 60.3125 134.99 61.5573V66.5573C134.99 67.8021 134.496 68.996 133.617 69.8772C132.738 70.7583 131.545 71.2547 130.3 71.2573ZM66.2 60.8973C66.0143 60.8973 65.8363 60.971 65.705 61.1023C65.5737 61.2336 65.5 61.4117 65.5 61.5973V66.5973C65.5 66.783 65.5737 66.961 65.705 67.0923C65.8363 67.2235 66.0143 67.2973 66.2 67.2973H130.3C130.391 67.2973 130.482 67.2791 130.566 67.2438C130.651 67.2085 130.727 67.1568 130.791 67.0917C130.856 67.0266 130.906 66.9493 130.94 66.8644C130.974 66.7796 130.991 66.6888 130.99 66.5973V61.5973C130.991 61.5059 130.974 61.4151 130.94 61.3302C130.906 61.2453 130.856 61.1681 130.791 61.1029C130.727 61.0378 130.651 60.9861 130.566 60.9508C130.482 60.9155 130.391 60.8973 130.3 60.8973H66.2Z" fill="#5B9DFE"/>
<g style="mix-blend-mode:overlay">
<g style="mix-blend-mode:overlay" opacity="0.4">
<path d="M187.58 84.2873H186.98L117.42 249.047H134.79L194.79 106.847V91.5473C194.79 89.6305 194.032 87.7914 192.681 86.4313C191.33 85.0712 189.497 84.3005 187.58 84.2873Z" fill="#3084FF"/>
</g>
<g style="mix-blend-mode:overlay" opacity="0.4">
<path d="M98.0599 249.057L167.59 84.2973H131.22L61.7 249.057H98.0599Z" fill="#3084FF"/>
</g>
<g style="mix-blend-mode:overlay" opacity="0.4">
<path d="M2 199.057V240.227L67.8 84.2973H50.43L2 199.057Z" fill="#3084FF"/>
</g>
</g>
<path d="M187.75 86.2873C187.22 86.2873 186.711 86.0766 186.336 85.7015C185.961 85.3265 185.75 84.8177 185.75 84.2873V63.6773C185.75 63.1469 185.961 62.6382 186.336 62.2631C186.711 61.888 187.22 61.6773 187.75 61.6773C188.28 61.6773 188.789 61.888 189.164 62.2631C189.539 62.6382 189.75 63.1469 189.75 63.6773V84.2873C189.75 84.8177 189.539 85.3265 189.164 85.7015C188.789 86.0766 188.28 86.2873 187.75 86.2873Z" fill="#5B9DFE"/>
<path d="M187.75 57.0473C187.22 57.0473 186.711 56.8366 186.336 56.4615C185.961 56.0864 185.75 55.5777 185.75 55.0473V52.3773C185.75 51.8469 185.961 51.3382 186.336 50.9631C186.711 50.588 187.22 50.3773 187.75 50.3773C188.28 50.3773 188.789 50.588 189.164 50.9631C189.539 51.3382 189.75 51.8469 189.75 52.3773V55.0473C189.75 55.5777 189.539 56.0864 189.164 56.4615C188.789 56.8366 188.28 57.0473 187.75 57.0473Z" fill="#5B9DFE"/>
<path d="M8.90991 86.2873C8.37948 86.2873 7.87077 86.0766 7.4957 85.7015C7.12062 85.3265 6.90991 84.8177 6.90991 84.2873V63.6773C6.90991 63.1469 7.12062 62.6382 7.4957 62.2631C7.87077 61.888 8.37948 61.6773 8.90991 61.6773C9.44035 61.6773 9.94905 61.888 10.3241 62.2631C10.6992 62.6382 10.9099 63.1469 10.9099 63.6773V84.2873C10.9099 84.8177 10.6992 85.3265 10.3241 85.7015C9.94905 86.0766 9.44035 86.2873 8.90991 86.2873Z" fill="#3084FF"/>
<path d="M8.90991 57.0473C8.37948 57.0473 7.87077 56.8366 7.4957 56.4615C7.12062 56.0864 6.90991 55.5777 6.90991 55.0473V52.3773C6.90991 51.8469 7.12062 51.3382 7.4957 50.9631C7.87077 50.588 8.37948 50.3773 8.90991 50.3773C9.44035 50.3773 9.94905 50.588 10.3241 50.9631C10.6992 51.3382 10.9099 51.8469 10.9099 52.3773V55.0473C10.9099 55.5777 10.6992 56.0864 10.3241 56.4615C9.94905 56.8366 9.44035 57.0473 8.90991 57.0473Z" fill="#3084FF"/>
<path d="M125.978 41.9979C129.923 26.6925 120.713 11.0872 105.408 7.1425C90.1022 3.1978 74.4969 12.4075 70.5522 27.7129C66.6075 43.0183 75.8172 58.6236 91.1226 62.5683C106.428 66.513 122.033 57.3033 125.978 41.9979Z" fill="#F2B91C"/>
<path d="M119.925 40.8729C122.233 28.9656 114.452 17.4414 102.545 15.1329C90.6375 12.8243 79.1133 20.6056 76.8048 32.5129C74.4962 44.4202 82.2775 55.9443 94.1848 58.2529C106.092 60.5614 117.616 52.7802 119.925 40.8729Z" fill="#E78F04"/>
<path d="M119.9 32.1773L99.3599 57.5773C93.8098 57.8822 88.3513 56.0663 84.0899 52.4973L111.74 18.3073C116.122 21.7275 119.039 26.6859 119.9 32.1773ZM104.1 14.4473C101.73 13.7875 99.2648 13.5339 96.8099 13.6973L76.4199 38.8773C76.7713 41.3218 77.5355 43.6888 78.6799 45.8773L104.1 14.4473Z" fill="#F2B91C"/>
<path d="M104.1 14.4473C101.73 13.7875 99.2649 13.5339 96.81 13.6973L101.98 7.30728C104.216 7.60439 106.408 8.16842 108.51 8.98729L104.1 14.4473ZM76.42 38.8773L71.25 45.2573C72.0114 47.3679 73.0183 49.3818 74.25 51.2573L78.67 45.7973C77.5376 43.633 76.777 41.2937 76.42 38.8773ZM115.83 13.1873L111.7 18.3073C116.082 21.7275 118.999 26.6859 119.86 32.1773L124.99 25.8273C123.185 20.8474 120.027 16.4699 115.87 13.1873H115.83ZM79.92 57.6173C83.9935 61.0068 88.932 63.1921 94.18 63.9273L99.32 57.5773C93.7699 57.8822 88.3113 56.0663 84.05 52.4973L79.92 57.6173Z" fill="#FFFF2F"/>
</g>
<path d="M97.5 455C97.5 455.276 97.7239 455.5 98 455.5C98.2761 455.5 98.5 455.276 98.5 455H97.5ZM97.5 272V277.083H98.5V272H97.5ZM97.5 287.25V297.417H98.5V287.25H97.5ZM97.5 307.583V317.75H98.5V307.583H97.5ZM97.5 327.917V338.083H98.5V327.917H97.5ZM97.5 348.25V358.417H98.5V348.25H97.5ZM97.5 368.583V378.75H98.5V368.583H97.5ZM97.5 388.917V399.083H98.5V388.917H97.5ZM97.5 409.25V419.417H98.5V409.25H97.5ZM97.5 429.583V439.75H98.5V429.583H97.5ZM97.5 449.917V455H98.5V449.917H97.5Z" fill="white"/>
<path d="M97.6464 484.354C97.8417 484.549 98.1583 484.549 98.3536 484.354L101.536 481.172C101.731 480.976 101.731 480.66 101.536 480.464C101.34 480.269 101.024 480.269 100.828 480.464L98 483.293L95.1716 480.464C94.9763 480.269 94.6597 480.269 94.4645 480.464C94.2692 480.66 94.2692 480.976 94.4645 481.172L97.6464 484.354ZM97.5 454V484H98.5V454H97.5Z" fill="white"/>
</svg>
