<svg width="14" height="14" viewBox="0 0 14 14" fill="none" xmlns="http://www.w3.org/2000/svg">
<g opacity="0.5">
<path d="M4.94568 7.7237C4.94568 7.54833 4.80343 7.40625 4.62791 7.40625H3.51901C3.3437 7.40625 3.20142 7.54833 3.20142 7.7237V8.83246C3.20142 9.00806 3.3437 9.1502 3.51901 9.1502H4.62791C4.80343 9.1502 4.94568 9.00806 4.94568 8.83246V7.7237Z" fill="#373737"/>
<path d="M7.71674 7.7237C7.71674 7.54833 7.57446 7.40625 7.39929 7.40625H6.29025C6.11494 7.40625 5.97266 7.54833 5.97266 7.7237V8.83246C5.97266 9.00806 6.11494 9.1502 6.29025 9.1502H7.39929C7.57446 9.1502 7.71674 9.00806 7.71674 8.83246V7.7237Z" fill="#373737"/>
<path d="M10.4884 7.7237C10.4884 7.54833 10.3461 7.40625 10.1708 7.40625H9.06191C8.88639 7.40625 8.74414 7.54833 8.74414 7.7237V8.83246C8.74414 9.00806 8.88639 9.1502 9.06191 9.1502H10.1708C10.3461 9.1502 10.4884 9.00806 10.4884 8.83246V7.7237Z" fill="#373737"/>
<path d="M4.94568 10.4952C4.94568 10.3196 4.80343 10.1776 4.62791 10.1776H3.51901C3.3437 10.1776 3.20142 10.3196 3.20142 10.4952V11.6038C3.20142 11.7793 3.3437 11.9214 3.51901 11.9214H4.62791C4.80343 11.9214 4.94568 11.7793 4.94568 11.6038V10.4952Z" fill="#373737"/>
<path d="M7.71674 10.4952C7.71674 10.3196 7.57446 10.1776 7.39929 10.1776H6.29025C6.11494 10.1776 5.97266 10.3196 5.97266 10.4952V11.6038C5.97266 11.7793 6.11494 11.9214 6.29025 11.9214H7.39929C7.57446 11.9214 7.71674 11.7793 7.71674 11.6038V10.4952Z" fill="#373737"/>
<path d="M10.4884 10.4952C10.4884 10.3196 10.3461 10.1776 10.171 10.1776H9.06191C8.88639 10.1776 8.74414 10.3196 8.74414 10.4952V11.6038C8.74414 11.7793 8.88639 11.9214 9.06191 11.9214H10.171C10.3461 11.9214 10.4884 11.7793 10.4884 11.6038V10.4952Z" fill="#373737"/>
<path d="M12.4711 1.55881V3.25234C12.4711 4.0178 11.8501 4.63464 11.0848 4.63464H10.2103C9.44488 4.63464 8.81567 4.0178 8.81567 3.25234V1.55273H4.87395V3.25234C4.87395 4.0178 4.24478 4.63464 3.47949 4.63464H2.60479C1.83948 4.63464 1.21854 4.0178 1.21854 3.25234V1.55881C0.549644 1.57898 0 2.13246 0 2.81277V12.7377C0 13.4308 0.561776 14 1.25488 14H12.4348C13.1268 14 13.6896 13.4296 13.6896 12.7377V2.81277C13.6896 2.13246 13.14 1.57898 12.4711 1.55881ZM12.0649 12.1196C12.0649 12.4191 11.8221 12.6621 11.5224 12.6621H2.14331C1.84367 12.6621 1.60081 12.4191 1.60081 12.1196V6.99305C1.60081 6.69341 1.84364 6.45041 2.14331 6.45041H11.5224C11.822 6.45041 12.0649 6.69341 12.0649 6.99305L12.0649 12.1196Z" fill="#373737"/>
<path d="M2.60167 3.72677H3.4667C3.72927 3.72677 3.94215 3.5142 3.94215 3.25163V0.475307C3.94215 0.212717 3.72927 0 3.4667 0H2.60167C2.33908 0 2.12622 0.212717 2.12622 0.475307V3.25163C2.12622 3.5142 2.33908 3.72677 2.60167 3.72677Z" fill="#373737"/>
<path d="M10.1991 3.72677H11.0641C11.3265 3.72677 11.5394 3.5142 11.5394 3.25163V0.475307C11.5394 0.212717 11.3265 0 11.0641 0H10.1991C9.93652 0 9.72363 0.212717 9.72363 0.475307V3.25163C9.72363 3.5142 9.93652 3.72677 10.1991 3.72677Z" fill="#373737"/>
</g>
</svg>
