<svg width="16" height="16" viewBox="0 0 16 16" fill="none" xmlns="http://www.w3.org/2000/svg">
<path d="M3.39961 15.2284C3.41767 15.6597 3.77254 16 4.20411 16H11.7211C12.1527 16 12.5076 15.6597 12.5256 15.2284L13.0624 3.89612H2.86279L3.39961 15.2284ZM9.66306 6.71086C9.66306 6.53029 9.80947 6.38384 9.99012 6.38384H10.5132C10.6938 6.38384 10.8403 6.53025 10.8403 6.71086V13.1853C10.8403 13.3659 10.6939 13.5123 10.5132 13.5123H9.99012C9.80955 13.5123 9.66306 13.366 9.66306 13.1853V6.71086ZM7.37404 6.71086C7.37404 6.53029 7.52046 6.38384 7.70107 6.38384H8.22417C8.4047 6.38384 8.5512 6.53025 8.5512 6.71086V13.1853C8.5512 13.3659 8.40482 13.5123 8.22417 13.5123H7.70107C7.5205 13.5123 7.37404 13.366 7.37404 13.1853V6.71086ZM5.08495 6.71086C5.08495 6.53029 5.23136 6.38384 5.41197 6.38384H5.93512C6.11569 6.38384 6.26214 6.53025 6.26214 6.71086V13.1853C6.26214 13.3659 6.11573 13.5123 5.93512 13.5123H5.41197C5.2314 13.5123 5.08495 13.366 5.08495 13.1853V6.71086Z" fill="#EB5757"/>
<path d="M13.4199 0.82424H9.952V0.168624C9.952 0.0755184 9.87652 0 9.78337 0H6.14176C6.04866 0 5.97318 0.0755184 5.97318 0.168624V0.824201H2.50528C2.2262 0.824201 2 1.05044 2 1.32952V2.91694H13.9251V1.32956C13.9251 1.05048 13.6989 0.82424 13.4199 0.82424Z" fill="#EB5757"/>
</svg>
