<svg width="24" height="24" viewBox="0 0 24 24" fill="none" xmlns="http://www.w3.org/2000/svg">
<g opacity="0.3">
<path d="M17.2866 21.41L16.9513 22.7808C15.9453 23.1779 15.1417 23.4801 14.5433 23.6879C13.9442 23.8963 13.2482 24 12.4551 24C11.2372 24 10.2899 23.7017 9.6143 23.1091C8.93868 22.5141 8.60076 21.7602 8.60076 20.8456C8.60076 20.4915 8.62528 20.1274 8.67626 19.7563C8.72767 19.3849 8.8094 18.9665 8.92126 18.4989L10.1785 14.0489C10.2904 13.6228 10.3854 13.2191 10.4616 12.8373C10.5388 12.4578 10.576 12.1087 10.576 11.7945C10.576 11.2262 10.4583 10.8287 10.2241 10.6052C9.98986 10.3824 9.54289 10.2692 8.87931 10.2692C8.5543 10.2692 8.22025 10.3213 7.87975 10.4219C7.53775 10.523 7.24543 10.6207 7 10.7115L7.3362 9.33956C8.15981 9.00422 8.94707 8.71706 9.70013 8.47874C10.4532 8.23976 11.1647 8.12017 11.8378 8.12017C13.0473 8.12017 13.9806 8.41249 14.636 8.99712C15.2914 9.58219 15.619 10.3406 15.619 11.2752C15.619 11.4686 15.5975 11.8093 15.5512 12.2963C15.5061 12.7844 15.422 13.2315 15.2993 13.6383L14.0475 18.0704C13.9449 18.4264 13.8526 18.8333 13.7724 19.2913C13.6896 19.7462 13.65 20.0938 13.65 20.327C13.65 20.9155 13.7812 21.3173 14.0442 21.5309C14.3092 21.7445 14.7657 21.8507 15.414 21.8507C15.7184 21.8507 16.0647 21.7967 16.4495 21.6907C16.8332 21.5847 17.1131 21.4915 17.2866 21.41ZM17.6041 2.80273C17.6041 3.57493 17.3131 4.23442 16.7282 4.77668C16.1449 5.32088 15.442 5.5932 14.6196 5.5932C13.7947 5.5932 13.0901 5.32088 12.5001 4.77668C11.9111 4.23421 11.616 3.57493 11.616 2.80273C11.616 2.03203 11.9111 1.37147 12.5001 0.82232C13.089 0.274035 13.7949 0 14.6196 0C15.4417 0 16.1449 0.27468 16.7282 0.82232C17.3135 1.37147 17.6041 2.03225 17.6041 2.80273Z" fill="white"/>
</g>
</svg>
