<svg width="184" height="180" viewBox="0 0 184 180" fill="none" xmlns="http://www.w3.org/2000/svg">
<path d="M63.2488 66.7894C59.5233 66.1598 56.8445 64.6014 55.3613 62.0049C54.3877 60.3419 53.9113 58.0927 53.9113 55.2639H58.3903C58.526 57.5177 58.8998 59.165 59.4777 60.203C60.5424 62.0651 62.4896 63.1096 65.3497 63.3411V49.8711C61.6859 49.197 58.9795 48.0701 57.225 46.4894C55.4752 44.9042 54.6031 42.7161 54.6031 39.9141C54.6031 37.4112 55.5435 35.1574 57.4224 33.1407C59.3136 31.135 61.9468 30.1128 65.3383 30.0794V26.7987H67.7391V30.0313C71.1021 30.2637 73.6784 31.2249 75.4738 32.9268C77.2682 34.6287 78.2086 36.8714 78.2987 39.6678H73.8767C73.7638 38.4187 73.4127 37.3418 72.8348 36.4353C71.7701 34.7722 70.0829 33.8991 67.7505 33.8166V45.8505C71.6629 46.9228 74.3246 47.9284 75.7224 48.8618C78.0103 50.409 79.1423 52.7017 79.1423 55.7297C79.1423 60.1113 77.6819 63.2217 74.7659 65.0671C73.5712 65.8236 71.8327 66.3264 69.8457 66.7024C75.6721 66.8959 81.47 67.8126 87.0639 69.459C92.3637 64.3152 95.6365 57.1992 95.6365 49.3423C95.6365 33.6564 82.6021 20.9429 66.5273 20.9429C50.4582 20.9429 37.4294 33.6564 37.4294 49.3423C37.4294 57.4418 40.9234 64.7356 46.5002 69.9071C51.9243 68.171 57.5637 67.132 63.2488 66.7894Z" fill="white"/>
<path d="M60.8478 43.4512C61.9628 44.3735 63.4697 45.0151 65.3609 45.3791V33.7656C63.1243 33.8535 61.5387 34.5063 60.5992 35.7379C59.6541 36.9759 59.1777 38.2685 59.1777 39.6223C59.1777 41.252 59.7433 42.528 60.8478 43.4512Z" fill="white"/>
<path d="M74.5954 56.9381C74.5954 54.8769 73.8201 53.3139 72.2743 52.2416C71.3795 51.6175 69.8735 51.0258 67.7612 50.4684V63.4634C70.6488 63.331 72.6359 62.3032 73.7461 60.3753C74.3126 59.3854 74.5954 58.2363 74.5954 56.9381Z" fill="white"/>
<path d="M166.317 123.919C169.872 120.311 170.2 113.598 169.612 104.631C165.433 104.355 159.273 105.035 157.093 104.631C151.805 94.36 144.2 86.3429 133.375 81.4807C133.737 74.773 134.671 68.6014 138.652 65.4077C128.981 64.7614 120.81 71.1376 115.59 76.9833C110.913 72.2368 103.977 68.4634 95.8294 65.8059L90.7565 74.6128C75.6724 69.5403 59.1051 69.5903 44.1064 74.7674L37.4857 66.0874C37.4687 66.0596 37.4402 66.0374 37.4174 66.0152C27.0732 69.3579 17.5431 74.5961 10.1548 82.1316C5.33712 81.7733 5.8913 72.2423 12.1428 73.7729C1.96749 67.0106 -3.63781 85.5466 6.20349 87.9171C-2.00091 99.3481 -2.77618 123.913 8.18485 132.925C9.78758 146.467 12.2443 159.18 18.9884 167.699H41.1382C40.5489 163.312 39.9662 158.627 40.4758 153.505C53.923 156.483 69.902 157.356 85.9369 156.08C88.4164 160.092 90.8068 164.17 93.7674 167.705H115.686C114.882 162.042 114.016 156.103 115.59 150.295C120.821 149.301 147.982 142.567 166.317 123.919ZM136.058 95.2267C139.064 95.2267 141.511 97.6082 141.511 100.542C141.511 103.475 139.064 105.857 136.058 105.857C133.058 105.857 130.617 103.475 130.617 100.542C130.617 97.6082 133.057 95.2267 136.058 95.2267Z" fill="white"/>
<rect x="120.308" y="27.8486" width="63.6923" height="6.90571" rx="3.45285" fill="white"/>
<rect x="148.615" y="62.3772" width="62.1514" height="7.07692" rx="3.53846" transform="rotate(-90 148.615 62.3772)" fill="white"/>
</svg>
