<svg width="24" height="24" viewBox="0 0 24 24" fill="none" xmlns="http://www.w3.org/2000/svg">
<path d="M12 0C5.38292 0 0 5.38292 0 12C0 18.6171 5.38292 24 12 24C18.6171 24 24 18.6171 24 12C24 5.38292 18.6171 0 12 0ZM12 23.0769C5.89246 23.0769 0.923077 18.1075 0.923077 12C0.923077 5.89246 5.89246 0.923077 12 0.923077C18.1075 0.923077 23.0769 5.89246 23.0769 12C23.0769 18.1075 18.1075 23.0769 12 23.0769Z" fill="white"/>
<path d="M11.092 7.2H12.674L12.408 13.906H11.344L11.092 7.2ZM11.89 17.084C11.6287 17.084 11.4093 17 11.232 16.832C11.0547 16.6547 10.966 16.44 10.966 16.188C10.966 15.936 11.0547 15.726 11.232 15.558C11.4093 15.3807 11.6287 15.292 11.89 15.292C12.1513 15.292 12.366 15.3807 12.534 15.558C12.702 15.726 12.786 15.936 12.786 16.188C12.786 16.44 12.6973 16.6547 12.52 16.832C12.352 17 12.142 17.084 11.89 17.084Z" fill="white"/>
</svg>
