<svg width="24" height="24" viewBox="0 0 24 24" fill="none" xmlns="http://www.w3.org/2000/svg">
<rect width="24" height="24" rx="5" fill="#3084FF"/>
<path d="M20.4705 12C20.4705 11.37 20.0165 10.6983 19.4568 10.5002C18.8971 10.302 18.3546 9.81691 18.1967 9.43433C18.0389 9.05175 18.0798 8.3237 18.3353 7.78746C18.5905 7.25123 18.4358 6.45492 17.9902 6.00934C17.545 5.56376 16.7487 5.4094 16.2121 5.66457C15.6758 5.91973 14.9488 5.96139 14.5673 5.80353C14.1858 5.64567 13.7003 5.10243 13.5015 4.54274C13.3023 3.98305 12.6299 3.52942 11.9999 3.52942C11.3698 3.52942 10.6974 3.98305 10.4983 4.54274C10.2991 5.10243 9.81398 5.64567 9.43246 5.80353C9.05093 5.96139 8.32358 5.91973 7.78734 5.66457C7.25111 5.4094 6.4548 5.56376 6.00922 6.00934C5.56364 6.45492 5.40928 7.25088 5.66445 7.78746C5.91961 8.32405 5.96022 9.0514 5.80165 9.43363C5.64309 9.81586 5.10231 10.302 4.54262 10.5002C3.98293 10.6983 3.5293 11.37 3.5293 12C3.5293 12.6301 3.98293 13.3024 4.54262 13.5016C5.10231 13.7004 5.64379 14.1866 5.80235 14.5681C5.96092 14.9493 5.91961 15.6763 5.66445 16.2126C5.40928 16.7488 5.56364 17.5451 6.00922 17.9907C6.4548 18.4359 7.25076 18.5906 7.78734 18.3354C8.32393 18.0803 9.05093 18.039 9.43246 18.1972C9.81433 18.3554 10.2991 18.9 10.4983 19.4587C10.6974 20.0173 11.3698 20.4706 11.9999 20.4706C12.6299 20.4706 13.3023 20.0173 13.5015 19.4587C13.7003 18.9 14.1851 18.3561 14.5666 18.1972C14.9481 18.0386 15.6762 18.0803 16.2121 18.3358C16.7487 18.591 17.545 18.4363 17.9902 17.991C18.4358 17.5454 18.5905 16.7491 18.3353 16.2129C18.0802 15.6763 18.0382 14.9493 18.196 14.5678C18.3539 14.1863 18.8975 13.7008 19.4572 13.502C20.0168 13.3024 20.4705 12.6301 20.4705 12ZM11.9999 15.1082C10.2813 15.1082 8.89167 13.7186 8.89167 12.0035C8.89167 10.2849 10.2813 8.89529 11.9999 8.89529C13.7147 8.89529 15.1046 10.2849 15.1046 12.0035C15.1046 13.7186 13.715 15.1082 11.9999 15.1082Z" fill="white"/>
</svg>
