<svg width="16" height="16" viewBox="0 0 16 16" fill="none" xmlns="http://www.w3.org/2000/svg">
<path d="M8.00711 6.85727H12.0071C12.0905 6.85727 12.1589 6.83053 12.2124 6.7769C12.266 6.72333 12.2928 6.65493 12.2928 6.57153V4.85727C12.2928 4.77387 12.266 4.70548 12.2124 4.6519C12.1589 4.5984 12.0905 4.57153 12.0071 4.57153H8.00711C7.92374 4.57153 7.85535 4.59827 7.80174 4.6519C7.74827 4.70548 7.72144 4.77387 7.72144 4.85727V6.57153C7.72144 6.65493 7.74817 6.72333 7.80174 6.7769C7.85535 6.83044 7.92374 6.85727 8.00711 6.85727Z" fill="white"/>
<path d="M8.00711 2.28571H10.2928C10.3761 2.28571 10.4446 2.25897 10.498 2.2054C10.5517 2.1518 10.5782 2.0834 10.5782 2.00003V0.285709C10.5782 0.20243 10.5517 0.133942 10.498 0.0803401C10.4446 0.0268634 10.3761 0 10.2928 0H8.00711C7.92374 0 7.85535 0.0267383 7.80174 0.0803088C7.7483 0.133942 7.72144 0.20243 7.72144 0.285678V2C7.72144 2.08337 7.74817 2.15176 7.80174 2.20537C7.85538 2.25884 7.92374 2.28571 8.00711 2.28571Z" fill="white"/>
<path d="M6.007 12.5714H4.29271V0.285709C4.29271 0.20243 4.266 0.133848 4.2124 0.0803401C4.1588 0.0268634 4.09041 0 4.007 0H2.29268C2.2094 0 2.14082 0.0267383 2.08732 0.0803088C2.03387 0.133942 2.00701 0.20243 2.00701 0.285678V12.5714H0.292689C0.161843 12.5714 0.0725274 12.6309 0.0248675 12.7499C-0.0228236 12.8631 -0.00187079 12.9672 0.0873195 13.0625L2.94444 15.9198C3.00993 15.9731 3.07832 15.9999 3.14981 15.9999C3.22718 15.9999 3.2957 15.9731 3.35518 15.9198L6.20339 13.0715C6.263 13.0002 6.29271 12.9285 6.29271 12.8574C6.29271 12.7738 6.26584 12.7055 6.2124 12.6515C6.15883 12.5982 6.09043 12.5714 6.007 12.5714Z" fill="white"/>
<path d="M15.641 13.7948C15.5874 13.7411 15.5191 13.7144 15.4357 13.7144H8.00711C7.92374 13.7144 7.85535 13.7411 7.80174 13.7948C7.7483 13.8483 7.72144 13.9168 7.72144 14.0001V15.7143C7.72144 15.7979 7.74817 15.8661 7.80174 15.9198C7.85538 15.9733 7.92374 16.0001 8.00711 16.0001H15.4356C15.519 16.0001 15.5874 15.9733 15.641 15.9198C15.6945 15.8661 15.7213 15.7979 15.7213 15.7143V14.0001C15.7214 13.9168 15.6945 13.8483 15.641 13.7948Z" fill="white"/>
<path d="M8.00711 11.4285H13.7215C13.8048 11.4285 13.8733 11.4018 13.9269 11.3483C13.9804 11.2948 14.0071 11.2263 14.0071 11.143V9.42856C14.0071 9.34531 13.9804 9.27679 13.9269 9.22331C13.8732 9.1698 13.8048 9.14307 13.7215 9.14307H8.00711C7.92374 9.14307 7.85535 9.1698 7.80174 9.22331C7.74827 9.27682 7.72144 9.34531 7.72144 9.42856V11.143C7.72144 11.2263 7.74817 11.2948 7.80174 11.3483C7.85535 11.4018 7.92374 11.4285 8.00711 11.4285Z" fill="white"/>
</svg>
